<svg width="53" height="53" viewBox="0 0 53 53" fill="none" xmlns="http://www.w3.org/2000/svg">
<path d="M44.4341 39.5223C43.4577 37.2096 42.0409 35.1089 40.2624 33.3372C38.4894 31.5604 36.389 30.1438 34.0774 29.1655C34.0567 29.1552 34.0359 29.15 34.0152 29.1396C37.2398 26.8105 39.3359 23.0167 39.3359 18.7363C39.3359 11.6455 33.5908 5.90039 26.5 5.90039C19.4092 5.90039 13.6641 11.6455 13.6641 18.7363C13.6641 23.0167 15.7603 26.8105 18.9848 29.1448C18.9641 29.1552 18.9434 29.1604 18.9227 29.1707C16.6039 30.1489 14.5233 31.5516 12.7376 33.3424C10.9608 35.1154 9.54417 37.2158 8.56593 39.5274C7.6049 41.7906 7.08659 44.2169 7.03907 46.6752C7.03769 46.7304 7.04738 46.7854 7.06757 46.8368C7.08776 46.8883 7.11804 46.9351 7.15662 46.9747C7.19521 47.0143 7.24133 47.0457 7.29225 47.0671C7.34317 47.0886 7.39787 47.0996 7.45313 47.0996H10.5586C10.7863 47.0996 10.9675 46.9185 10.9727 46.6959C11.0762 42.7002 12.6807 38.9581 15.517 36.1218C18.4517 33.1871 22.349 31.5723 26.5 31.5723C30.651 31.5723 34.5483 33.1871 37.483 36.1218C40.3193 38.9581 41.9238 42.7002 42.0274 46.6959C42.0325 46.9236 42.2137 47.0996 42.4414 47.0996H45.5469C45.6021 47.0996 45.6568 47.0886 45.7078 47.0671C45.7587 47.0457 45.8048 47.0143 45.8434 46.9747C45.882 46.9351 45.9123 46.8883 45.9324 46.8368C45.9526 46.7854 45.9623 46.7304 45.9609 46.6752C45.9092 44.2012 45.3968 41.7944 44.4341 39.5223ZM26.5 27.6387C24.1243 27.6387 21.8884 26.7122 20.2063 25.0301C18.5241 23.3479 17.5977 21.112 17.5977 18.7363C17.5977 16.3606 18.5241 14.1247 20.2063 12.4426C21.8884 10.7604 24.1243 9.83398 26.5 9.83398C28.8757 9.83398 31.1116 10.7604 32.7938 12.4426C34.4759 14.1247 35.4024 16.3606 35.4024 18.7363C35.4024 21.112 34.4759 23.3479 32.7938 25.0301C31.1116 26.7122 28.8757 27.6387 26.5 27.6387Z" fill="black"/>
</svg>
